<svg xmlns="http://www.w3.org/2000/svg" version="1.1" xmlns:xlink="http://www.w3.org/1999/xlink" xmlns:svgjs="http://svgjs.dev/svgjs" width="2000" height="1247" viewBox="0 0 2000 1247"><g transform="matrix(1,0,0,1,-1.2121212121212466,0.504858299595071)"><svg viewBox="0 0 396 247" data-background-color="#e6e3e2" preserveAspectRatio="xMidYMid meet" height="1247" width="2000" xmlns="http://www.w3.org/2000/svg" xmlns:xlink="http://www.w3.org/1999/xlink"><g id="tight-bounds" transform="matrix(1,0,0,1,0.2400000000000091,-0.09999999999999432)"><svg viewBox="0 0 395.52 247.2" height="247.2" width="395.52"><g><svg></svg></g><g><svg viewBox="0 0 395.52 247.2" height="247.2" width="395.52"><g transform="matrix(1,0,0,1,89.52922595117359,47.215199999999996)"><svg viewBox="0 0 216.4615480976528 152.7696" height="152.7696" width="216.4615480976528"><g><svg viewBox="0 0 216.4615480976528 152.7696" height="152.7696" width="216.4615480976528"><g><svg viewBox="0 0 216.4615480976528 152.7696" height="152.7696" width="216.4615480976528"><g><svg viewBox="0 0 216.4615480976528 152.7696" height="152.7696" width="216.4615480976528"><g id="textblocktransform"><svg viewBox="0 0 216.4615480976528 152.7696" height="152.7696" width="216.4615480976528" id="textblock"><g><svg viewBox="0 0 216.4615480976528 152.7696" height="152.7696" width="216.4615480976528"><g transform="matrix(1,0,0,1,0,0)"><svg width="216.4615480976528" viewBox="0.98 -38.180642355539995 66.21 46.720642355539994" height="152.7696" data-palette-color="#64ffda"><path d="M3.71 8.54L3.71 8.54Q5.62 3.03 6.2-6.23L6.2-6.23 1.2-8.03 6.45-13.04Q6.45-14.16 6.45-17.92 6.45-21.68 6.13-29.71L6.13-29.71Q4.86-30.3 3.55-30.9 2.25-31.49 0.98-32.13L0.98-32.13 5.18-37.48Q11.87-35.52 14.82-34.59L14.82-34.59Q14.75-33.81 14.7-33.03 14.65-32.25 14.58-31.52L14.58-31.52 22-37.48Q30.3-31.2 30.3-22.56L30.3-22.56Q30.3-21.63 30.2-20.7L30.2-20.7Q29.22-10.84 21.51-0.76L21.51-0.76 13.67-3.56Q13.89 0.37 14.62 1.68L14.62 1.68Q10.62 4.15 3.71 8.54ZM21.75-8.08L21.75-8.08Q24.78-8.08 24.78-12.7L24.78-12.7Q24.78-16.63 23.27-20.78 21.75-24.93 19.17-27.29L19.17-27.29Q18.14-28.25 17.16-28.25L17.16-28.25Q15.65-28.25 14.21-26.03L14.21-26.03Q13.7-17.99 13.57-11.82L13.57-11.82 21.61-8.08Q21.68-8.08 21.75-8.08ZM55.93-36.01L55.93-36.01Q58.2-34.89 60.56-34.89 62.91-34.89 66.23-36.67L66.23-36.67 67.19-35.52Q63.57-27.69 58.4-27.69L58.4-27.69Q56.96-27.69 54.59-28.52L54.59-28.52Q48.02-30.79 45.07-30.79L45.07-30.79Q43.67-30.79 42.28-30.52L42.28-30.52Q38.47-29.71 38.47-26.03L38.47-26.03Q38.47-24.71 39.16-23.56L39.16-23.56Q40.38-21.46 43.02-21.46 45.65-21.46 47.75-26.15L47.75-26.15Q50.02-26.51 52.05-26.51L52.05-26.51Q56.05-26.51 59.08-25.1L59.08-25.1Q63.64-22.97 65.11-19.14L65.11-19.14Q65.72-17.55 65.72-15.44 65.72-13.33 64.5-10.55L64.5-10.55Q62.42-5.76 55.98-1.51L55.98-1.51Q54.78-0.73 53.27-0.73L53.27-0.73Q51.71-0.73 49.88-1.15L49.88-1.15Q44.99-2.17 40.84-4.88 36.69-7.59 33.96-12.35L33.96-12.35Q32.66-14.53 32.66-17.16L32.66-17.16Q32.66-17.48 32.69-17.8L32.69-17.8Q33.54-29.66 42.06-36.84L42.06-36.84Q43.67-38.21 46.51-38.18L46.51-38.18Q51.24-38.11 55.93-36.01ZM39.52-18.77L39.52-18.77Q40.45-14.5 46.56-11.16L46.56-11.16Q51.17-8.64 55.15-8.64L55.15-8.64Q56.47-8.64 57.71-8.91L57.71-8.91Q60.2-9.42 61.5-10.86L61.5-10.86Q62.91-12.43 62.91-14.15 62.91-15.87 61.51-17.5 60.1-19.14 57.08-19.65L57.08-19.65Q56.78-19.7 55.98-19.7 55.17-19.7 53.32-18.99L53.32-18.99Q51-18.12 49.63-15.14L49.63-15.14Q49.41-15.14 49.19-15.14L49.19-15.14Q44.82-15.14 39.52-18.77Z" opacity="1" transform="matrix(1,0,0,1,0,0)" fill="#64ffda" class="wordmark-text-0" data-fill-palette-color="primary" id="text-0"></path></svg></g></svg></g></svg></g></svg></g></svg></g></svg></g></svg></g><g><path d="M0 123.6c0-68.262 55.338-123.6 123.6-123.6 30.402 0 58.24 10.976 79.768 29.183l-11.147 0c-19.26-14.022-42.974-22.294-68.621-22.295-64.458 0-116.712 52.254-116.712 116.712 0 64.458 52.254 116.712 116.712 116.712 25.647 0 49.361-8.272 68.621-22.295l11.147 0c-21.528 18.206-49.366 29.183-79.768 29.183-68.262 0-123.6-55.338-123.6-123.6z" fill="#64ffda" stroke="transparent" data-fill-palette-color="tertiary"></path></g></svg></g><defs></defs></svg><rect width="395.52" height="247.2" fill="none" stroke="none" visibility="hidden"></rect></g></svg></g></svg>